G04 #@! TF.GenerationSoftware,KiCad,Pcbnew,5.1.4-e60b266~84~ubuntu18.04.1*
G04 #@! TF.CreationDate,2019-10-20T18:55:26-06:00*
G04 #@! TF.ProjectId,001,3030312e-6b69-4636-9164-5f7063625858,rev?*
G04 #@! TF.SameCoordinates,Original*
G04 #@! TF.FileFunction,Paste,Bot*
G04 #@! TF.FilePolarity,Positive*
%FSLAX46Y46*%
G04 Gerber Fmt 4.6, Leading zero omitted, Abs format (unit mm)*
G04 Created by KiCad (PCBNEW 5.1.4-e60b266~84~ubuntu18.04.1) date 2019-10-20 18:55:26*
%MOMM*%
%LPD*%
G04 APERTURE LIST*
%ADD10C,0.100000*%
%ADD11C,1.272600*%
%ADD12R,3.847600X3.847600*%
%ADD13R,5.347600X5.347600*%
%ADD14R,2.647600X1.547600*%
%ADD15C,1.547600*%
%ADD16R,1.547600X2.647600*%
%ADD17C,1.347600*%
%ADD18R,0.847600X3.347600*%
%ADD19C,0.847600*%
%ADD20R,0.847600X1.747600*%
%ADD21R,1.747600X0.847600*%
%ADD22R,1.397600X0.847600*%
G04 APERTURE END LIST*
D10*
G36*
X147337421Y-126837275D02*
G01*
X147359093Y-126840490D01*
X147380347Y-126845814D01*
X147400976Y-126853195D01*
X147420782Y-126862563D01*
X147439575Y-126873827D01*
X147457174Y-126886878D01*
X147473408Y-126901592D01*
X147488122Y-126917826D01*
X147501173Y-126935425D01*
X147512437Y-126954218D01*
X147521805Y-126974024D01*
X147529186Y-126994653D01*
X147534510Y-127015907D01*
X147537725Y-127037579D01*
X147538800Y-127059463D01*
X147538800Y-128210537D01*
X147537725Y-128232421D01*
X147534510Y-128254093D01*
X147529186Y-128275347D01*
X147521805Y-128295976D01*
X147512437Y-128315782D01*
X147501173Y-128334575D01*
X147488122Y-128352174D01*
X147473408Y-128368408D01*
X147457174Y-128383122D01*
X147439575Y-128396173D01*
X147420782Y-128407437D01*
X147400976Y-128416805D01*
X147380347Y-128424186D01*
X147359093Y-128429510D01*
X147337421Y-128432725D01*
X147315537Y-128433800D01*
X146489463Y-128433800D01*
X146467579Y-128432725D01*
X146445907Y-128429510D01*
X146424653Y-128424186D01*
X146404024Y-128416805D01*
X146384218Y-128407437D01*
X146365425Y-128396173D01*
X146347826Y-128383122D01*
X146331592Y-128368408D01*
X146316878Y-128352174D01*
X146303827Y-128334575D01*
X146292563Y-128315782D01*
X146283195Y-128295976D01*
X146275814Y-128275347D01*
X146270490Y-128254093D01*
X146267275Y-128232421D01*
X146266200Y-128210537D01*
X146266200Y-127059463D01*
X146267275Y-127037579D01*
X146270490Y-127015907D01*
X146275814Y-126994653D01*
X146283195Y-126974024D01*
X146292563Y-126954218D01*
X146303827Y-126935425D01*
X146316878Y-126917826D01*
X146331592Y-126901592D01*
X146347826Y-126886878D01*
X146365425Y-126873827D01*
X146384218Y-126862563D01*
X146404024Y-126853195D01*
X146424653Y-126845814D01*
X146445907Y-126840490D01*
X146467579Y-126837275D01*
X146489463Y-126836200D01*
X147315537Y-126836200D01*
X147337421Y-126837275D01*
X147337421Y-126837275D01*
G37*
D11*
X146902500Y-127635000D03*
D10*
G36*
X144362421Y-126837275D02*
G01*
X144384093Y-126840490D01*
X144405347Y-126845814D01*
X144425976Y-126853195D01*
X144445782Y-126862563D01*
X144464575Y-126873827D01*
X144482174Y-126886878D01*
X144498408Y-126901592D01*
X144513122Y-126917826D01*
X144526173Y-126935425D01*
X144537437Y-126954218D01*
X144546805Y-126974024D01*
X144554186Y-126994653D01*
X144559510Y-127015907D01*
X144562725Y-127037579D01*
X144563800Y-127059463D01*
X144563800Y-128210537D01*
X144562725Y-128232421D01*
X144559510Y-128254093D01*
X144554186Y-128275347D01*
X144546805Y-128295976D01*
X144537437Y-128315782D01*
X144526173Y-128334575D01*
X144513122Y-128352174D01*
X144498408Y-128368408D01*
X144482174Y-128383122D01*
X144464575Y-128396173D01*
X144445782Y-128407437D01*
X144425976Y-128416805D01*
X144405347Y-128424186D01*
X144384093Y-128429510D01*
X144362421Y-128432725D01*
X144340537Y-128433800D01*
X143514463Y-128433800D01*
X143492579Y-128432725D01*
X143470907Y-128429510D01*
X143449653Y-128424186D01*
X143429024Y-128416805D01*
X143409218Y-128407437D01*
X143390425Y-128396173D01*
X143372826Y-128383122D01*
X143356592Y-128368408D01*
X143341878Y-128352174D01*
X143328827Y-128334575D01*
X143317563Y-128315782D01*
X143308195Y-128295976D01*
X143300814Y-128275347D01*
X143295490Y-128254093D01*
X143292275Y-128232421D01*
X143291200Y-128210537D01*
X143291200Y-127059463D01*
X143292275Y-127037579D01*
X143295490Y-127015907D01*
X143300814Y-126994653D01*
X143308195Y-126974024D01*
X143317563Y-126954218D01*
X143328827Y-126935425D01*
X143341878Y-126917826D01*
X143356592Y-126901592D01*
X143372826Y-126886878D01*
X143390425Y-126873827D01*
X143409218Y-126862563D01*
X143429024Y-126853195D01*
X143449653Y-126845814D01*
X143470907Y-126840490D01*
X143492579Y-126837275D01*
X143514463Y-126836200D01*
X144340537Y-126836200D01*
X144362421Y-126837275D01*
X144362421Y-126837275D01*
G37*
D11*
X143927500Y-127635000D03*
D12*
X152400000Y-93980000D03*
D13*
X139600000Y-93980000D03*
X165200000Y-93980000D03*
D14*
X152527000Y-116322800D03*
X152527000Y-121522800D03*
D15*
X163913501Y-126826005D03*
D10*
G36*
X162385274Y-126951446D02*
G01*
X164554061Y-125432845D01*
X165441728Y-126700564D01*
X163272941Y-128219165D01*
X162385274Y-126951446D01*
X162385274Y-126951446D01*
G37*
D15*
X166896099Y-131085595D03*
D10*
G36*
X165367872Y-131211036D02*
G01*
X167536659Y-129692435D01*
X168424326Y-130960154D01*
X166255539Y-132478755D01*
X165367872Y-131211036D01*
X165367872Y-131211036D01*
G37*
D15*
X173705799Y-97231452D03*
D10*
G36*
X173980167Y-95722832D02*
G01*
X174885699Y-98210762D01*
X173431431Y-98740072D01*
X172525899Y-96252142D01*
X173980167Y-95722832D01*
X173980167Y-95722832D01*
G37*
D15*
X178592201Y-95452948D03*
D10*
G36*
X178866569Y-93944328D02*
G01*
X179772101Y-96432258D01*
X178317833Y-96961568D01*
X177412301Y-94473638D01*
X178866569Y-93944328D01*
X178866569Y-93944328D01*
G37*
D15*
X165535605Y-84879499D03*
D10*
G36*
X165661046Y-86407726D02*
G01*
X164142445Y-84238939D01*
X165410164Y-83351272D01*
X166928765Y-85520059D01*
X165661046Y-86407726D01*
X165661046Y-86407726D01*
G37*
D15*
X169795195Y-81896901D03*
D10*
G36*
X169920636Y-83425128D02*
G01*
X168402035Y-81256341D01*
X169669754Y-80368674D01*
X171188355Y-82537461D01*
X169920636Y-83425128D01*
X169920636Y-83425128D01*
G37*
D15*
X139808207Y-82315600D03*
D10*
G36*
X138281415Y-82173761D02*
G01*
X140680955Y-81054837D01*
X141334999Y-82457439D01*
X138935459Y-83576363D01*
X138281415Y-82173761D01*
X138281415Y-82173761D01*
G37*
D15*
X137610593Y-77602800D03*
D10*
G36*
X136083801Y-77460961D02*
G01*
X138483341Y-76342037D01*
X139137385Y-77744639D01*
X136737845Y-78863563D01*
X136083801Y-77460961D01*
X136083801Y-77460961D01*
G37*
D16*
X129803200Y-102336600D03*
X124603200Y-102336600D03*
D10*
G36*
X181932567Y-113647497D02*
G01*
X181934530Y-113647788D01*
X181936454Y-113648270D01*
X181938322Y-113648939D01*
X181940115Y-113649787D01*
X181941816Y-113650807D01*
X181943410Y-113651988D01*
X181944879Y-113653321D01*
X181946212Y-113654790D01*
X181947393Y-113656384D01*
X181948413Y-113658085D01*
X181949261Y-113659878D01*
X181949930Y-113661746D01*
X181950412Y-113663670D01*
X181950703Y-113665633D01*
X181950800Y-113667614D01*
X181950800Y-116874786D01*
X181950703Y-116876767D01*
X181950412Y-116878730D01*
X181949930Y-116880654D01*
X181949261Y-116882522D01*
X181948413Y-116884315D01*
X181947393Y-116886016D01*
X181946212Y-116887610D01*
X181944879Y-116889079D01*
X181943410Y-116890412D01*
X181941816Y-116891593D01*
X181940115Y-116892613D01*
X181938322Y-116893461D01*
X181936454Y-116894130D01*
X181934530Y-116894612D01*
X181932567Y-116894903D01*
X181930586Y-116895000D01*
X180623414Y-116895000D01*
X180621433Y-116894903D01*
X180619470Y-116894612D01*
X180617546Y-116894130D01*
X180615678Y-116893461D01*
X180613885Y-116892613D01*
X180612184Y-116891593D01*
X180610590Y-116890412D01*
X180609121Y-116889079D01*
X180607788Y-116887610D01*
X180606607Y-116886016D01*
X180605587Y-116884315D01*
X180604739Y-116882522D01*
X180604070Y-116880654D01*
X180603588Y-116878730D01*
X180603297Y-116876767D01*
X180603200Y-116874786D01*
X180603200Y-113667614D01*
X180603297Y-113665633D01*
X180603588Y-113663670D01*
X180604070Y-113661746D01*
X180604739Y-113659878D01*
X180605587Y-113658085D01*
X180606607Y-113656384D01*
X180607788Y-113654790D01*
X180609121Y-113653321D01*
X180610590Y-113651988D01*
X180612184Y-113650807D01*
X180613885Y-113649787D01*
X180615678Y-113648939D01*
X180617546Y-113648270D01*
X180619470Y-113647788D01*
X180621433Y-113647497D01*
X180623414Y-113647400D01*
X181930586Y-113647400D01*
X181932567Y-113647497D01*
X181932567Y-113647497D01*
G37*
D17*
X181277000Y-115271200D03*
D10*
G36*
X175232567Y-113647497D02*
G01*
X175234530Y-113647788D01*
X175236454Y-113648270D01*
X175238322Y-113648939D01*
X175240115Y-113649787D01*
X175241816Y-113650807D01*
X175243410Y-113651988D01*
X175244879Y-113653321D01*
X175246212Y-113654790D01*
X175247393Y-113656384D01*
X175248413Y-113658085D01*
X175249261Y-113659878D01*
X175249930Y-113661746D01*
X175250412Y-113663670D01*
X175250703Y-113665633D01*
X175250800Y-113667614D01*
X175250800Y-116874786D01*
X175250703Y-116876767D01*
X175250412Y-116878730D01*
X175249930Y-116880654D01*
X175249261Y-116882522D01*
X175248413Y-116884315D01*
X175247393Y-116886016D01*
X175246212Y-116887610D01*
X175244879Y-116889079D01*
X175243410Y-116890412D01*
X175241816Y-116891593D01*
X175240115Y-116892613D01*
X175238322Y-116893461D01*
X175236454Y-116894130D01*
X175234530Y-116894612D01*
X175232567Y-116894903D01*
X175230586Y-116895000D01*
X173923414Y-116895000D01*
X173921433Y-116894903D01*
X173919470Y-116894612D01*
X173917546Y-116894130D01*
X173915678Y-116893461D01*
X173913885Y-116892613D01*
X173912184Y-116891593D01*
X173910590Y-116890412D01*
X173909121Y-116889079D01*
X173907788Y-116887610D01*
X173906607Y-116886016D01*
X173905587Y-116884315D01*
X173904739Y-116882522D01*
X173904070Y-116880654D01*
X173903588Y-116878730D01*
X173903297Y-116876767D01*
X173903200Y-116874786D01*
X173903200Y-113667614D01*
X173903297Y-113665633D01*
X173903588Y-113663670D01*
X173904070Y-113661746D01*
X173904739Y-113659878D01*
X173905587Y-113658085D01*
X173906607Y-113656384D01*
X173907788Y-113654790D01*
X173909121Y-113653321D01*
X173910590Y-113651988D01*
X173912184Y-113650807D01*
X173913885Y-113649787D01*
X173915678Y-113648939D01*
X173917546Y-113648270D01*
X173919470Y-113647788D01*
X173921433Y-113647497D01*
X173923414Y-113647400D01*
X175230586Y-113647400D01*
X175232567Y-113647497D01*
X175232567Y-113647497D01*
G37*
D17*
X174577000Y-115271200D03*
D18*
X178927000Y-109521200D03*
D10*
G36*
X177339332Y-107847461D02*
G01*
X177340566Y-107847644D01*
X177341777Y-107847947D01*
X177342951Y-107848368D01*
X177344079Y-107848901D01*
X177345150Y-107849543D01*
X177346152Y-107850286D01*
X177347076Y-107851124D01*
X177347914Y-107852048D01*
X177348657Y-107853050D01*
X177349299Y-107854121D01*
X177349832Y-107855249D01*
X177350253Y-107856423D01*
X177350556Y-107857634D01*
X177350739Y-107858868D01*
X177350800Y-107860114D01*
X177350800Y-111182286D01*
X177350739Y-111183532D01*
X177350556Y-111184766D01*
X177350253Y-111185977D01*
X177349832Y-111187151D01*
X177349299Y-111188279D01*
X177348657Y-111189350D01*
X177347914Y-111190352D01*
X177347076Y-111191276D01*
X177346152Y-111192114D01*
X177345150Y-111192857D01*
X177344079Y-111193499D01*
X177342951Y-111194032D01*
X177341777Y-111194453D01*
X177340566Y-111194756D01*
X177339332Y-111194939D01*
X177338086Y-111195000D01*
X176515914Y-111195000D01*
X176514668Y-111194939D01*
X176513434Y-111194756D01*
X176512223Y-111194453D01*
X176511049Y-111194032D01*
X176509921Y-111193499D01*
X176508850Y-111192857D01*
X176507848Y-111192114D01*
X176506924Y-111191276D01*
X176506086Y-111190352D01*
X176505343Y-111189350D01*
X176504701Y-111188279D01*
X176504168Y-111187151D01*
X176503747Y-111185977D01*
X176503444Y-111184766D01*
X176503261Y-111183532D01*
X176503200Y-111182286D01*
X176503200Y-107860114D01*
X176503261Y-107858868D01*
X176503444Y-107857634D01*
X176503747Y-107856423D01*
X176504168Y-107855249D01*
X176504701Y-107854121D01*
X176505343Y-107853050D01*
X176506086Y-107852048D01*
X176506924Y-107851124D01*
X176507848Y-107850286D01*
X176508850Y-107849543D01*
X176509921Y-107848901D01*
X176511049Y-107848368D01*
X176512223Y-107847947D01*
X176513434Y-107847644D01*
X176514668Y-107847461D01*
X176515914Y-107847400D01*
X177338086Y-107847400D01*
X177339332Y-107847461D01*
X177339332Y-107847461D01*
G37*
D19*
X176927000Y-109521200D03*
D20*
X131318000Y-124662200D03*
X133858000Y-121362200D03*
X136398000Y-124662200D03*
D21*
X145795000Y-120523000D03*
X142495000Y-117983000D03*
X145795000Y-115443000D03*
X142495000Y-112903000D03*
X145795000Y-110363000D03*
X142495000Y-107823000D03*
D22*
X157565000Y-130480000D03*
X152315000Y-130480000D03*
X157565000Y-133680000D03*
X152315000Y-133680000D03*
M02*
